<mxfile host="65bd71144e">
    <diagram id="HIP3nbAZw_EuaXWnEj3U" name="Page-1">
        <mxGraphModel dx="1216" dy="706" grid="1" gridSize="10" guides="1" tooltips="1" connect="1" arrows="1" fold="1" page="1" pageScale="1" pageWidth="850" pageHeight="1100" math="0" shadow="0">
            <root>
                <mxCell id="0"/>
                <mxCell id="1" parent="0"/>
                <mxCell id="7" value="http://ics2o.mths.ca" style="swimlane;whiteSpace=wrap;html=1;fillColor=#dae8fc;strokeColor=#6c8ebf;" parent="1" vertex="1">
                    <mxGeometry x="40" y="40" width="760" height="480" as="geometry"/>
                </mxCell>
                <mxCell id="8" value="" style="rounded=1;whiteSpace=wrap;html=1;" parent="7" vertex="1">
                    <mxGeometry x="40" y="120" width="140" height="40" as="geometry"/>
                </mxCell>
                <mxCell id="9" value="&lt;font style=&quot;font-size: 18px;&quot;&gt;Enter two numbers to divide:&lt;/font&gt;" style="text;html=1;align=left;verticalAlign=middle;resizable=0;points=[];autosize=1;strokeColor=none;fillColor=none;" parent="7" vertex="1">
                    <mxGeometry x="40" y="60" width="250" height="40" as="geometry"/>
                </mxCell>
                <mxCell id="10" value="" style="rounded=1;whiteSpace=wrap;html=1;" parent="7" vertex="1">
                    <mxGeometry x="245" y="120" width="140" height="40" as="geometry"/>
                </mxCell>
                <mxCell id="11" value="&lt;font style=&quot;font-size: 18px;&quot;&gt;รท&lt;/font&gt;" style="text;html=1;align=center;verticalAlign=middle;resizable=0;points=[];autosize=1;strokeColor=none;fillColor=none;" parent="7" vertex="1">
                    <mxGeometry x="195" y="120" width="30" height="40" as="geometry"/>
                </mxCell>
                <mxCell id="12" value="&lt;font style=&quot;font-size: 17px;&quot;&gt;CALCULATE&lt;/font&gt;" style="rounded=1;whiteSpace=wrap;html=1;fillColor=#99FFFF;" parent="7" vertex="1">
                    <mxGeometry x="40" y="200" width="140" height="40" as="geometry"/>
                </mxCell>
                <mxCell id="13" value="&lt;font style=&quot;font-size: 18px;&quot;&gt;Your answer is: xx R xx&lt;/font&gt;" style="text;html=1;align=left;verticalAlign=middle;resizable=0;points=[];autosize=1;strokeColor=none;fillColor=none;" parent="7" vertex="1">
                    <mxGeometry x="40" y="270" width="210" height="40" as="geometry"/>
                </mxCell>
                <mxCell id="15" value="" style="shape=image;verticalLabelPosition=bottom;labelBackgroundColor=default;verticalAlign=top;aspect=fixed;imageAspect=0;image=data:image/png,iVBORw0KGgoAAAANSUhEUgAAAgYAAAEqCAYAAABuuZhwAAAACXBIWXMAAA7EAAAOxAGVKw4bAAAAGXRFWHRTb2Z0d2FyZQBBZG9iZSBJbWFnZVJlYWR5ccllPAAAKs5JREFUeNrs3Q1wFOed5/EHAzYSRlKkRTiRvBrKcLdgQKo4a1Hn20hQa5/NxisldpWpnFOScSWprd1Dytm5nKt8kUh85d2r3EqwW7cbp0DyxbdHKjgSR5bY+MoSu3EWubJGYF7OBTkNRkqCfEhCBMkYgq7/rX6k1nhGmpfumX75fqoeNBJCmnlmhv71/3npRQqAn1UYrcrWiowWsVo8Y0brt273Gi1qfX6CrgQAwH8KjVZntA6jDRhtyqE2arQuozVYvwNASC2iCwBfqDFao9HqrapAQkvy8lVB+eq4fzd5eVhNjnyQzO/rttrLdD1AMADgHXIG36oSDA0Ur73XaBtUQdlqlVdSmjAQxJowA8KwGjl3So0PDpgfb05OxPvWqNE6jdZutCs8HQDBAICHAoFUA1Ztqp5uldWO/sLLRji4dKJPDZ/si1dVGLPCAQEBIBgAyKJK6wy9yv7FFWURFdnyqCrfvDUrd0ICQrT3kBo5dzpeBaHZaAd5qgCCAQB3tVkH3RkyVLBm23ZVsnZDTu6QDDmcP7xfDfX1xP6VzD9opHoAEAwAOK/COtDOVAnyileqdY897fhwQbpkmEECQkwFQaoHMhmSpY4AwQCAQ2qsUDCz0mDNtidUpPZRtTR/uefubLTnkDpnBISYiYpSOWD1AkAwAJAhmWDYqT+RiYWf/spzORs2SJYML7zz0ovq6lDU/mWZlPg1nlLA/xbTBUDuQ4FMLvzX/7FN3XlXuefvuFQyPnnfH6jr46P2cLBZTa+gYFIiQDAAkEkoKKveon7/T1vU4qW3++c/DuO+6vkPtnkHVYQDgGAAIDWynfF+eyjY9KWdvn0wMuyRV1yqhk++bQ8HsudBH081QDAAMD/Zo0AmGi4LQijQZLfFpXnL1f87e1x/6WE1fWGm93jKAYIBgPgKrVAQkU9kf4L7vvJcYB5c0ep/aV6HwTbnQMKBVEbY5wDwmdvoAiArWpW1T4HsUfDpLz8XuAco1Q8JPDorKNs8CgBUDADMkr0K/lZ/Ut30gsovKQ3kA5VrOLz/09fUrZs35NOIYr4BQMUAwMe06xuyeVGyV0D0I1nKuOnJOfMmWtX0MAoAggEANb00cWYIYe227YF/wLKMMWZIoZmXAUAwADB7xmySax+Exca5VYNmqgYAwQDAdLUgIjfkDNorF0TKBplDIcsxLVQNAIIBADV9cSGTXBQpbNbMHTYhGAAEAyDU5FLKtXJD5haEqVqgSdUgZq5BHS8LgGAAhFW9vlG6qTq0nVBWvTVunwAgGAChDQblm7eGthNWzQ1FBAOAYACEVq38IcMIQd63YCGyr0Hppvv1pzKcUMlLAyAYAGFTo28Ur90Q+s4omdsHtbw8AIIBEDZV+kaYqwXairl9UMXLAyAYAGETSXBQDKWYikGElwdAMADCZrZiUEYwEEvy8gkGAMEAgEy+w5whFYIBQDAAAAAEAwAAQDAAAAAEAwAAQDAAgIWNDw7om2P0BkAwAMImqm9cPneK3jDcnJzQN/vpDYBgAIQ2GExeHg59Z8SEoygvD4BgAIRNr75hK6GHVkw4IhgABAMgdGbK5SMMJcT2QS8vD4BgAITNFR0Org5F1UTIhxMuneyzf3qUlwdAMADCaObMeHjugTFcoeBEn33iYTcvC4BgAIRVp74xeOzN8AaDuaGIYAAQDIDQOqGsiXYynBDGZYs3Jq6pob4e/ekYwQAgGABh165vDIWwahDtPRRbLbjCSwIgGABh1mmdKZtnzmGqGki1INozJxi08nIACAZA2MkZ8kzV4Pzh/aF54OeMx2qbdCgB6QIvB4BgAGA6GJhVg5Fzp0MxEVE2dbrQ+2OqBQDBAECCqkGz/uTsq3sDva+BDCGc/P6e2FBAtQAgGACweVlZ+xpIef3dV/YE9oFK8JFVGBa50c7TDxAMAHxco7INKcScVQeCDJPYlieKesVKBMB3FtMFQFbIAfL/GG27fCJn1XnFpaqgfHUgHpzscHii8y/tX5Lhk4M87QDBAEBi71lVg4flk+GTbwciHMhkw3e+96K6dfOG/lKn0Z7j6QYIBgAWJnsER4xWFYRwIMMH/R3/1b40US4e9QhPM0AwAJC8g7HhYPLysFpVWe27UPDuK39lrxRIKKg12nWeYsC/FtEFQM50qOlJiabitfeqT3/5ObU0f7mn77QsSZTVBzETDXsVkw0BggGAjDUp25K+JXn5atOTOz1bPZD5BLKiwrYkUXQa7SmeSoBgAMAZddbBtUh/oXTT/WrdY0+r/JJSz1QJZJvjmB0Nhaw+2M1TCBAMADirwgoHtfYvrtn2hIrUPpqz4QXzYki9h8wLItkmGAqZT9Copi8vDYBgAMAlMrTQaq8eyPDCqk3VRkjYnrUKgmzbPNT3ZrxAoKz7J8MfzCcACAYAsqDQOvA2xv6FTFAsq95qBgWnqwhSHbh0ss9sslIijm41PXSQ7LUPKq2AU2V91Le12jTvqlQrxmJuy8eoooIBEAyAAKuwzs4b4/3lirKIOUmxoGy1ERg2pBwUJAiMDw2okXOnrHY60bd2W0Hl6DxBpso60MvHSEwAyLZeKyjIR3ZfBAgGQCArCM1WQIgk+iYZctAbJUlQiEdWFdycvGZ9nJjvd8pZeKcVCC7EuT/1VhCone8+eUS3rTH8ARAMgLQPxvqst9b6WJTgTFiXyjV7qTv2a/aydzqXI660AkKtC2flUessuzvOmXaFFQYac1wNcCIkdFJJAAgGQCI11hlvxDrYFmX5wNdva3JQTmWMvMK6r1W2M/dkz97H4vzuRJWBZp+HgUQhqJUqAkAwQLhV2s60qzx6sBtTs2XvdM9qC+d5bFG1cKVCD100q7mVkCCS/m5XrLIAgFCQA1yDmt56eNRoUz5ro9Z9r8xif7X4tK8ybQPWawUAEEA11gE1SAeuHutxudlnAyEMBLHteBaDGOBJDCUgSOSMr1V5f5Z8JjrVdInfybJ3i9VvXqPnQSzEjXkh7VafMLwAAD4NBGEqf486eFbb4YHHItWQNjW966NULirSfCzy7+qsn3VcOTO8QPUAAHykToW3/D2qMh8Tz0UoGLB+b0MWDrp6jklPhve5ibcaAHibnBl2KcbDM6kcNKnsTqBsyKAS4NRrJpNJqB1W0AAAeLBKEMZZ8/OdgadzJj3q8n2Scn6NB18/may8OE44QBgw+RB+kfDCQmmyb/AzpubuVhhVidf62w92ETU70bE25mM2SZ+8nGK1oN3h+yB9pncVPBHg19OY9RxzsSYAyPF/4plOJtNj21JxqMjC/ZUA0WCdOfe4fIZ+PMX716P8uc+CG2rSeG2NKiYlAkDOVGZwUPXagavCOhBJKbvL4bCQikx/V5cVsIKkhXAAAMENBaPWf/R+GA/WS+xaMjyTdzsYyFl1kwr2GHuqmzwRDgDAB6GgLQAHL3ns9mGIZHZFTEWy/aonEVaE6HVXmGJAGw1Z/wCAb0JB0Ley1cMQTVZ1Qbd0SvptSYSBsJ8JtylWKwCAZw6AqYaCNrotZfriUl1WwMj1PgNe7aNU5l0AgcByRXiJnHX1quT3vZelY3LdgJfpOu+5pyKiL/9cq2aXdiZzXYNe66NeQiqf9//iQjQX1y2QikynSu7y061G28UzD4IB4Bw566pPIRTIAYf15N4KAvXW86LDwMesW79OFRQUxP0Z4+Pj6uyZs4l+RdQKCdK6sxgUKq3fmUw4kMd9lFcDCAZA5lLZdIdQ4L0wUB8b6qo3VxttsxEE1ptBQG6nou/YMTU4OKiGjCa3+471xX5Lv3U235mFkJBsOJDwIhURrsoIggGQ4X+6/Ul+L6HAG4FA5iO0WmHAPFiWlZepBx96yGyphoBUwsIbR46YH2MqCzogHHX5dZpMOJCA+zVeJSAYAOk7rpKbV0Ao8E4gaJTPVxSsUI89/rj6gtHWr1+f1fsi1YTOffvMoDA0OGSvIrQbAcGteSfJhoMqXqcgGADpSWUIQUJBVsdvjQNhpXUQiKgEY+Y2Ud2MA9OFgAWCOdcWkOrAzuZmszqQaL5ANkk4kJBgG26Q56HRpQpCjZqdIJmI/P0W3t4gGACpKbT+A09mUpcckFxdfWCdDddarUolvzoikX5b6zUOUr48gzT6pcmqEhTpQCBVAi+SIYY97e32gNBrBQSng5osZexc4HtkmOUgb3MQDIDkyf4DzUl8n/wH/JRLB706KwjUx1YEZPZ8WXm5WSJfYZwVL1QqP3PmjLo6Pm5+lAlzcWbXR9XsjHrPHzCsKkG31T9GIGhSjTt2eKJCkExAeOFb37I/B61Gnzu9lHChcEDVAAQDIAUV1oEymbNuOTA5Nsvbqgw0Wm0mDPzhQw+ak+YkADg1eU4OUBIUpmfVHzOCw1X9V2PWQbfdi5UEo49qrPtXJAHpL77znazPIXBCx759ZgXB6vd+q3rgZH93qPkv3SyvXZYvAkCS1YJkdpRzbGteCQRG6zDalG5f/fKXp468/vrUlStXprJBftfXn3lmqmrjxinb/ThutAYPhYImfd92t7VN+d3FixenvvjEE7qvR13o6655Xr8dvNUBYGFSok5m2+MWNwLBZx94YGrf3r1ZCwOJHPjhD+0HLGkDuQ4Iup8kuEiICRJ5zm193ebw6/n4PK9jrqMAAAtoUsldmCbTg1yh0VrsgUAOxl5z7J/+yawixASEmlyGgtOnT08FkTwuW7Wmy5pH4YT5rvFRx1seAOZ3XLk8hCAHVusAax4I5GzRZyVvfeDKyoWNdCj43COPmPcjyKRSJI/TNozjVDioUVzkCwDSOrNy9WqJUia2zyHI9ZBBOhUEqW64OCYet7/kd/qtrzwYDuJdkbGHtz0AJLbQMIKUY9P6T9oaOugJyhi5TPyLqR44PlYtoSPowwc5CAcdcV7TAIAEehYIBk1pHuAq9dCB/GcflDNfOVjHHLycXKVRaVUkQhcKEoQDJ1cQxK5UAAAkMF8oGMj0ACeT+IJ48LJNThy1NmXKNBQUWkHDF/MvshgOnJoPYF+pQMUAABKoWSAYpDyWbg8F3961K9AHsJjldhnNO9DzCmQOBqYnftpWKzi1ikDCgQSNFt76ABDffPMLUl6eaA8FXlyG6NbeB5mGA6vfzANhWCYbJjvp01aVqeDtirC6jS5AFs13saTmVH6QbR//osYdT3n2oj5Ok8f5vw7/vXm5Y0NnmuHAvJrl89/8pi+ue5Atsg22XA/Cep120iMA4L6OBNWClJdz6dUHQZxTkMZGPQ0p9Jvs72Dul4D4bPMNmnjLIoy4iBKySQJAbZyvy9eSvtCM7GZofGiVi/scOnw4tJ35xpEj6k++8lW5KRdkqk3m4kASqOR7/8f+/+nYhaKS1dvbazbR39+vxsbGzNtVVVWqqKhIRSIR87a0XJKLXv3xtj/S/Rox+vUKb10AcC8YZLQSQZ/xytly0HfoS3HOwehC6/CzXS0YHR2d6ujomKqrq0vmYlkzrbCwcKqhoWGqq6vLC3tIsGshALgo3lXoUhoj13sVBO0CP5mwLWXsWaDvurLRdxIIWlpazAN8KoEgXquoqJhqMw7S8jOzvYTRNlTDREQAcEmLymAlgr4gEkvs5h0Xb0nQd4V622M3yVm+E4EgXkCQ6kOOqgZcOhkAXBK7j3zSVxC0DmyjDCEktQ6/Mk7/NcnfycHOrSpBqkMG6bSampqpgYGBXFQNuHQyQmMJXYAs6o25fTSFfyvLGYue2rFDlZeX5/yByOS5aDRqfoxVW1trTqbL5iQ66ZOdzc3qP3/r2/KpLEfcEnu35I8vuLCsUyYRymM+ceKE64/z6NGjZr92d3ebv9NNspRTXm972nfr198u3sIA4DyZzCVDCEmfgdmrBbnckEdPpEu2VC7fJ98v/y5bY+S2yzY3xPShK8MI8rgqKytdrxTEa9kYWpBKjNWfA7x1AcAj3C6DZ2sincy0d7sMbtu9b8DWfzVubBmdy1CQzXAgc1oSDdEAAHITDMyVCNmeWyCz4d2YSCcBwc0Kgm2VQoPVfy1ubBstjyOXoSBb4cC2JJSliwDggVBQme2VCHLQlklubh7MJHC0uVQBiS1/62WKTgYrWX3ghVCgW09Pj6uTEBlOAADvBIO2bF4k6fjx4+bSuGwd0GQOghvVA1vVoE5fXtnJ4JTNPko2aLlZhbHN3WBPAwQeF1GC19XLHw8+9JDrv0hWGMhM9wsXLmTtwR08eND8nXp7YKfYLirVaLQq2T7aKe3t7Vnto2QYZ/Wqvr7etZ9v2z66lrckCAZA7qoFcnYWqd5c7fpVAPWSOznAZJss85PfLcsfnTyQlZWXzQQrp/pP+kmCgRfJUkZZxuhyMKjinQmCAZA7tTH/Kbv3i3IUCuzhQM54nawcNO7Y4fj9lANvLvtpIc3NzY5XX8S69esJBiAYAB5QlY1g0NrampXNeZKtHDh1YLMPvzjVh16tFmgyxOHGfZSKy4qCFXIzwtsSBAMgx8HAdrbmOCnf79rlnQ3tJBzIWa8TZDdEJ+cWSGDxQoBaSGdnpys/d/3065BgAIIBkEMROUtzc35BY2Oj5x70yy+/7NhYua4UjI+PZ/yzent7ffGikaqBW+EAIBgAOQ4G612sFsgqBJmw5kUSWJwYUtDB4OyZM6EJBsKNSYi6ciU7SfLWBMEACCAvj5fLBD+Z++DUwcypIOUXsgzU6UmIbq+MAQgGQADPKp20e/fujJcw6itROjGU4ORyymzwU4UDIBgAC9DlWrcmHnp92Z3mRNVA9oE4e+Zsxj/Ha5saEQwAggHCZcypM10/HzQkwDhVEj/jwDwDP3F66MPWf2O8PUEwALLsFxei5rq4ocHBUAcDqWpkOuShqy5nQxYMnJ5YetUKqfq1CRAMgADxw3p8e9UgE3rSXNiCgdPcql4BBAMgx/w2iU5m2DvhjSNHQvdcO1kZsuZp9PMOAsEAyJ3+vmN9oQ8GTh3ghgaH1GAGQzM1NeFdvm+bXxDlbQmCAZA75iSvQZfmGYTxzDeMVQNnqgUzwYCKAQgGQC6Ph9NnugSDTKoc9tUInfv2pf1z5AJPYdV37Nic1yRAMAByoz/mP2WCQRquzk6a65bhhHT7s6rKf1ccjkQijgaDX1yIHuVtCYIBQDDIuUz2MrCGYuQHmMsbXj1wIDQVAyeCgVRcJFDp/gMIBkCOGGdnstWeOQHRyaViTp1FZlMmyyutg1q/0Z8vS/HhRwdeTWveRlFRkaqrq/NNn1VUVDjyc340G6QIBiAYAB7QK384OWnOj8EgXbZqi5401yp/7EnzAlL19fW+eexODX1YFZYxggEIBoA3dDodDERlZWUog0GmVQMJBoWFhb547E4MfUgouDp+1awWGH13hbcjCAZAjlnbz0b/95E3HB1O8NtEunSDTILZ9GbV4BvPPpvyz5PhhMbGxtAEA1tlpZV3IwgGgMeqBpkstXPjoJFNckBOlQQpa4OoqDVfQ9mqBubcjXQqMc3NzZ7vL5lfkGn4k2qBNT+j195/AMEA8EgwSHc2fTx+GisX6cyLsB30442Nm6f9/+HZZ1OuxMh9aWlp8XR/ORFeqBYAgIfdUxHpMNrUgR/+cMopdXV1U8aP9kVra2tL+fF98YknpqTPjFaZoE9b5O/l+1I1Ojo6ZZyVe7KvCgsLzfuXid1Gf1t918G7DwC8GQwq5D/qzz7wwNSVK1ccCQYdHR2+CQbHjx9P6bFdvHhRH9gGFujX4/J9u9MIHj09PZ7sq5aWloxeF6dPn9Z9N2q0Qt59AODxqkE6B7FEvHrWG3sGnKqvP/OMPrg1JBG4RtOtxjQ1NXmqr+T5zLRa8LlHHtF918S7DgC8XzUYrdq40TwjDkvVoKGhId1qQVJnvMb31Mj3S7/K2XKqampqPNNXUsXIhC1QdfGOAwB/hIOmdMfF/Vo1SPVgZzu4taTQrw3phgM5Q6+srMx5P0n1IhNSMdHDLwwhAIC/woE5Lr5v715HgkFXV5dnQ4Gcjac5Pp7ywU1PRvRjOJCJpA6FgtFEkzUBAN4NBpV6XDyd0refViikWi2wjY83pNm3HZmEg1wMK0ggyWRegTxOebyZ9BsAIPfhoMHJVQpeXH6XarXAtsSuJ8O+nakcpDMhUVYFqCzOv8gkFBx5/XVCARBjkdFa6Ab40arfWdl85/LlRevWr1OHDh/O+Of19/ebOyIaQSPnj02uRyD3J9mNjeTSwH+87Y/Ub2/dUr+69OvO6x99FM3k9xcVFNSXfKLY3DpwZ3OT0VLbMKi3t9fcOvnCBfc2DGxra8toIyPZMOsbz37dvH15dKR/bHyciyQBlikaza+t/JOfMs/2ZMJdkOYbyGqJZEnFRJ/1rlh+p2P3Ydkdy6Yid//ulJ7smU5lRqoHstzS6UpKqvs6xPr2rl26SuBon9FoAWl0As2/7bZFtzkeDnK9hDGV5YlysNbzClaW/I7j92XJ4iUz/SvhQ0rv6QzTyM6NmQ7VSCDIdDmiLOXU/SWh5/alt/M+otFi2iKdDlaURdS6x5+mfgLfMcKBGv/p36vrH/xSfeHxx9R/+c53Mv6Z3d3dZik828MKRihQnZ2dSX//v92+3bxQUt7d96j8+2rdu2PDg+ryz143b1ZvrlZ/YfRxeXl5WsM10rcy1HD06NEFh1PkQkhyXQtp6Vwvwq5j3z7z+gdyGWXprzs/s1XdmrrFGwgwnD2wV10dmh6BnAkGxWvvVdVNL9A78KXffjipBvf/tRkO5MD1Ny+9pAoKCjL6mXIQk3Bw4sQJT4YCuQDSjw68qu5Y+SlVvv3P1OJlea7evw+Hh9Slw39n9rGQuQeNO3Zk1M/RaNRssSQQpHNFyXjk0tMSCKwrTaqSf/VvVMkDD/OmAezvk93Pq5FzpwkGCG44kAmJEg7SOau1GxsbU62trWr37t2u3W85M243DlwSQpIhV0OUSsHZM2ezFgrsRn9+VF3+2Wvq1vUP1YqCFeopIxxkGhDcMDg4aAYCCU9CqgQrt35eLSst480CzBMMFivrkqJ5JaWqfPNWege+dduSpWrF731afTRySf3yvTPmrPN77rnHbOlatmyZevjhh83VCnJm6/Qs+5qaGvXaa6+ZPz/Zg92OhoachQLz/4pPRVRh5QNGfy9R4xf/rzr21lvqu3/zt+Z9KzOC2MqVK3P7H5xVIZAVB9JPSwo+YQaCUqMtWV7AGwWIY6jvTTU58gEVAwTX5bdemxkTb9zxlLnczokzWhkblwrCQuPjyQQC+TnJBgLxxpEj5vCBjJEX3Pv75sEu26EgllRpxv75qBo1mlQQhFRrvvD44+rBhx7KuGKTSnVA+qdz3z41NDhkfk0CgQwZFG64nzcEkELFgGCAwJp4/7z6Zfde84BVVl5mTkqs3rzZkZ8t1QOZRCct2ZBQWVlpBgFZe5/KRDoZOpAz4M59HebnXh0jv3LqbTVutMmLv5j5moQE6XMJCU71vb0yIE0CgVQGZioad9+jCowwQCAACAZA3DPaX//k79S186fMz//woQfV89/8puNnsjJRUeYjSEXBTk+iS6UyEHvwkyqBnAXfdscy9an6p1X+767xdJ/fuDKifnPuXTMk6ImK9qCwbv16s//lo1RxZPgh0fMhlYAho+m+kM/PnjkzJwgIGVaRMHDn2o1qaWExL3yAYAAsXD2QgHBzfNT8XJY1yvBCtkrdqZID4DeMQKBn0ntl6CCdYDZ58byaMNr14aE51YRMSBC4o7RM5Rkh6c41G33XLwDBAPAImXtgHw/3WkCQrY1lnFzPpJcDoAQCr1cJUiHLHm9ZgWHm8+uTCb8//+7pxy5B4LY78gLVFwDBAPDIWWzshDnZ+0AmzD1mtFyQFRQ/MpquEDBxDgDBAMhBQPjN+XfNKoIeYpB1+XqinHx0a22+TCjUE+ekyUoDXSEo+kwNgQAAwQDIJSlnj/38qBkUdBVB6Fn1MlFO2nqjpUOGCGQSnYQBmTynKwNCJhXKOLkEAjbfAZDrYLCE7gCUeUC+a9sXZ0KCuezu/fPm7PfYGfCy9FHPSUi0BE8CgK4MxP57XRmQiXMyfi4z6QHAKwgGQJyQsGzr52c+lxUNMlFOluHdGB9RvzKCg95Ex37mn4isq5dJc/Jz84wgIJPorl+7au40NjUxoe6kywEQDAD/kFnw8WbCyxwFWYIXj6yln289/dn/3q6GT75t3q7Z9V2VX1JKRwMgGAB+Jmvn0106l1c8GwSGT/apyJZHQ9V344MD5seC8tW8kACPuY0uALLPHgQGj70Zqsf+kz/7vHrrz/+9OvvqXl4IAMEAgJChg7zi6asQXh2Khq5SIJbkLeeFABAMAGjFazfM3L587lQoHrN9COXm5DVeBADBAIBmH1+fvDwcise8NJ8qAUAwABDXCnswGBkO3eMPSxgCCAYAknJzYraUfulEn7oxEY7S+oqyiBWGPgjNYwYIBgAWND40OxFPJiDKlqQTITiLts+tuHSyjxcCQDAAoKsEdhIO3vrzr82ZuR9EJbZgILs/AiAYAKEnexfoZYqybHFJXr55++bkhFk5CHI4uGFbjSAXbYn2HOIFARAMgHCSoYJzh/erd1/5q5mvrdm23byyqR57l3AgGwAFceMjeUz2xy7OvrovdJs8AV7GlsiAy+TsX3b505c0tSur3qLKN281b0s4kGqBriTIAVT+7frHnw5EP5w5sFdd6P3xzOdSKZEJiPqxXrK2hrYPNQAgGACBI6XzeKGgovZzcw76ssZfwsHJV/bMXGBJDqRXhwbUxid3+vZCS7Ly4J3vvTinDyQQbfrSTnXy+3vUUF+P+TV5zNJkWEXv8eDnxw0QDADM/2azDnirNlWrUqPFO+BJOLjvK8+Z1xPQ5IB6tOWr5sFUhh38dKCUHR3feelFc3hEW7PtCbXWeBxCwoH0iQyv6O+RjzpEyP4OBAOAYAAEipTGH/nrrpT+jcw3iL2GgpxZS/NDQJAqgRzs7UMHQqokOhRoMnxQVr3VHEqQNmKECXuQAEAwAEJvvq2DvRwQJBDIEkRZaaDnDyTzuOTrMtdCz7fQPwsAwQCA0hcbOj3v99gDQplxQM3lpD3Zk0HO9vV8AbfDEQCCARCuYJBCFUAHhOK196pI7aNqVWV1Vu6jLL2UysCwEQjiVQcAEAwAOKSgbHXK/0Ym7EmTZYB63N7ps24JAxIE7Bs0ASAYAPBQxSCWnL3LpkHSZJhBVkFkUkWQvRRkQiBhACAYAMhVxaB8tSM/Rw8zSBWh1AoIC81FkKqABAHdnBwmmJ47AYBgACBlMmcg3sZI6VYRZOmgNL2fghyk7ZUJCQFSHXBzqWAeexIABAMA6QaDDY4FA7vZDYRO08kAPoaLKAEeDgZBszSPJYgAwQBAWoJ4MSGn5k4AIBgAoVS66f7APBaZ2wCAYAAgA7LUMCioFgAEAwAEgxksVQQIBgAyJDsXBmU4gaWKAMEAgAOCUjUI4ioLgGAAIOvkUsRBmLiXzvUfAGTfzAZHcu3zy+dO0SOAR8+2h0++7dv7L1syjw8N8EQCHiUZQFtktCm6BAAAEAwAAMDHgkEL3QD4Riv3GwAAaBLkp3zWunjaAABwR6HRRn0WDBp42gAAcE+dz4JBIU8ZAADu6vJJKOjgqQIAwH1yFj7gg2BQw1MFAEB2VCpvzzfo4SkCACC7GqgWAAAAr4cDligCAEA4MJsMb7ASAfCpRXQBEKhw0JnuP743v1htL12r7l1eYn5+8fpV9ZORC+q1kfdT/VH1RjvI0wEQDADknkxI7DVaUbL/oGDx7WrPms+qR0oq4v79+x9eVU3n/0H9bPzXyfy4dqN9jacBIBgA8I5Cq3JQn0wo6NqwTW2wqgTzeemXp9R/ivbN9y3yO5+i+wF/W0wXAIFz3Wg/MFq/0TYnqh6kEgrEfStK1d133JloaIFQABAMAHjce9YB+0OjVRltmf0vn6/4jHqkJJLSD9QhImZYodloz9HdQDAsoQuAQLtitF1qeuy/3jqIV5l/8duP5v2Hp65dVldufmROQrx4/Tfq4oe/MW+fujaiv6XX+nkn6GYAAPxLJijK5ZuPq/T3KGDzIiCgmHwIoMaqIkR0NSEOqQ70Wx+v0GUAAAAAAAAAAAAAAAAAAAAAAAAAAAAAAAAAAAAAAAAAAAAAAAAAAAAAAAAAAAAAAAAAAAAAsm4RXQCEVs08f9dvtCt0EUAwABDMAFBltFqjFVkfkxW1Wq8VFnoJDAAA+Euh0RqM1mW0KRfacaM1Ga2CrgaoGADwdmWg2Wj1833TirKIWpq/3Pi42vwYz8i5U9bH0wv9TqkitButm0oCQDAA4A1SHWg1WiT2L5bk5atVm6pV8doNqqB8tdlSNXF5WF0dHFCXjbAggeHqUDTet41ZAaGdgAAQDADkRp11II7EhoGy6q2qfPPWtIJAMkFh+GSfivYcUpMjHyQKCLt4egCCAYDskLH9ThUziVCGCCJbHjUDQbZIFWHo2JtqqK8n9q+krNBotKM8XQDBAIB7ZNJfq5peXTATCNY9/rQqWbshZ3dKqgjnD++PFxDarfvL8AJAMADgoELrINuovyBDBuseezqrFYJkKghnD+yNnYfQb93vEzyNAMEAQOZk6EBm/VfpL5Ruul9tenJnwlUFuXbu8H51/vAP7F8as8LBQZ5OgGAAIH2VanpToZmhg41P/jtPVQkSGR8cUO+89GLsBEUJBy/ztAIEAwAZhgIZOqhuesGVlQZuuTFxTb3zvRdj90MgHAAetpguALwfCmSCoYSCO+8q99d/MEtvN6sbk7IXwuy8A9mAST5hzgFAxQBAEgqtUFBlDwVenU+QrJPf3xO7aqFWsZwRIBgAWFCPddA0hw9qd73k+1CQIByMWeHnAk854B230QWAp7TYQ0EQKgV2srxSKiAWGSbp5ikHvIU5BoB3yLyC/fqTqqeeUSX/YkOgHqDMOfjkfX+g3v/pa+rWzRvypbusv2JIAaBiACBGp75RUfs5taqyOpAPUiogsgeDTaviEs4AwQDAHHKFRHOyYV7xSrV22/ZAP1gJPWXVW+KGIgAEAyDs9HbHJhmHD9K8gkTkcco8Ckut0Wp4KQAEAwDTG/6Y+xUUr703sEMIsST8yNUgbVp5KQAEAwBKNesbawI+hBArUvtobNWgkpcDQDAAwqxOjo+6WpDLSyfnQpyqQTMvCYBgAIRZvb5RVr01lB0gVYN4/QGAYACENhhIOX3VpupQdoBUDeQy0haZa1HHywIgGABhVKNmJh1uCMVKhERiQlEtLw2AYACEUW2CAyPBAADBAAhzMCgO2aTDWFItsV1DoYqXBkAwAMLIPADK/IL8ktLQd0ZB+Wr7p2x2BBAMgNApinNADK28ueGoiB4BCAZAmMycEecVUy0QMcMpDCcABAOAM2UAIBgAAACCAQAAIBgAAACCAQAAIBgASGRM3xgfHKA3DDcnrtEJAMEACK0TMwfESQ6IZkAamhOQeukRgGAAhE1U/hg5d5qeUB+rnIzRIwDBAAib/gQHxVC6OrcPTvDyAAgGQNj06hsj506FuiMmLg+ryZEPPtYvAAgGQCiDwaWTfaHuiOG5j59gABAMgFCScnlUbsg8AzlrDqvBY2/aP+3mpQEQDICwmjkIDvW9GcoOkEB0dSiqP40q5hcABAMgxDpngsGxcAaD84f3x+0PAAQDIIzk7LhXbsjku8GQhQOpFgz19di/1M5LAiAYAGHXnuDsOYzVgiu8HIDcWkwXADn3ntFqjRa5OTlhfqFk7YbAP2jZu+H0D75r/1I9wQCgYgBgWqu+Ee05FIoVCie/v8f+qVRNLvAyAKgYAJgmB8Uqo/3erZs31NWhAVW+eWtgH+y5w/vVr995S386ZlULrvMyAKgYAJjVaB0kzX0NzhzYG8gHefncKXX+8A9iHzdDCADBAECMK9ZBcrqE0PvjwK1SkCGSd1560f4lGUI4yFMPeAdDCYC3yETEIqNtlk+GT76tVm2qVncUfML3D+zGxDX18//2LfXh7DUR+q0gxBAC4CGL6ALAk7rU9Li7WpKXr6qbXlAF5at9HQr6dj9v3+FQhkwiiiEEgIoBgKS8ZrSHjXaXTEb81T//o1k18GM4kOEDqRTEhIJaxSoEgIoBgJQUquldEav0F9Y9tkNFtjzqmwcgexVIpUDvz2ALBVwPASAYAEgzHHRbB1NT6ab71aYnd6ql+cs9fcdlP4azr+6zf4lQABAMADikQ9lWLOQVr1Qbv7TTkzskytDBu6/sMZdc2vRboYA5BQDBAIBDGtT08r4ie/Vg3WNPq/yS0pzfOZlgGO09ZFYKbEMHotNozYQCgGAAwHmV1oG2yv7FNdueUGXVW3MWEGS/Bbkg0uTsUkQhQweNin0KAIIBANc1qenrKxTZv1hWvcWcnJiN1QvTl0x+M16FgCoBQDAAkAMyMbFd2eYeaDIHoWzzVnNzJCdDgoSBkXOn1KWTfebmS3H0WoHlKE8PQDAAkBsV1sG4PraCIGSDpOK1G8yAIB/zikuTHnKQ6xpMWmFAlh7a9iKI1W2FFAIBQDAA4KEKgoQDKeFXLfTNUlXIixMQZBLhPAHALmoLBGxWBACAx6sIMg9BtlYeNdqUQ+240drU9CRIAFQMAPhUpVVFiKjZzZLk86IE399rfey3KgPykWECIAT+vwADAJOL+aPcu9D7AAAAAElFTkSuQmCC;" parent="7" vertex="1">
                    <mxGeometry x="440" y="50" width="308.12" height="177.25" as="geometry"/>
                </mxCell>
            </root>
        </mxGraphModel>
    </diagram>
</mxfile>